REM DIRINDEX 1\2,1\3
REM DIRNAME cjc080,folder01,folder02
TITLE ""
FILE "ScrambleS_3Part1_Theme011.mp3" MP3
  TRACK 01 AUDIO
    TITLE "3:cjc080_0046"
    INDEX 01 00:00:00
  TRACK 02 AUDIO
    TITLE "0:"
    INDEX 01 00:01:28
  TRACK 03 AUDIO
    TITLE "2:cjc080_0047"
    INDEX 01 00:02:45
  TRACK 04 AUDIO
    TITLE "0:"
    INDEX 01 00:05:32
  TRACK 05 AUDIO
    TITLE "2:cjc080_0048"
    INDEX 01 00:06:51
  TRACK 06 AUDIO
    TITLE "0:"
    INDEX 01 00:09:53
